{"accessors":[{"bufferView":0,"byteOffset":0,"componentType":5126,"count":167,"max":[0.25,0.5,0.25],"min":[-0.25,-0.5,-0.25],"normalized":false,"type":"VEC3"},{"bufferView":1,"byteOffset":0,"componentType":5126,"count":167,"max":[1,0,1,1],"min":[-1,-0.000022,-1,1],"normalized":false,"type":"VEC4"},{"bufferView":2,"byteOffset":0,"componentType":5126,"count":167,"max":[1,1,1],"min":[-1,-1,-1],"normalized":false,"type":"VEC3"},{"bufferView":3,"byteOffset":0,"componentType":5126,"count":167,"max":[1,1],"min":[0,0],"normalized":false,"type":"VEC2"},{"bufferView":4,"byteOffset":0,"componentType":5125,"count":576,"max":[166],"min":[0],"normalized":false,"type":"SCALAR"},{"bufferView":5,"byteOffset":0,"componentType":5126,"count":87,"max":[0.1,0.25,0.1],"min":[-0.1,-0.25,-0.1],"normalized":false,"type":"VEC3"},{"bufferView":6,"byteOffset":0,"componentType":5126,"count":87,"max":[1,0,1,1],"min":[-1,-0.000022,-1,1],"normalized":false,"type":"VEC4"},{"bufferView":7,"byteOffset":0,"componentType":5126,"count":87,"max":[1,1,1],"min":[-1,-1,-1],"normalized":false,"type":"VEC3"},{"bufferView":8,"byteOffset":0,"componentType":5126,"count":87,"max":[1,1],"min":[0,0],"normalized":false,"type":"VEC2"},{"bufferView":9,"byteOffset":0,"componentType":5125,"count":288,"max":[86],"min":[0],"normalized":false,"type":"SCALAR"}],"asset":{"generator":"Godot Engine v4.0.2.stable.official@7a0977ce2c558fe6219f0a14f8bd4d05aea8f019","version":"2.0"},"bufferViews":[{"buffer":0,"byteLength":2004,"byteOffset":0},{"buffer":0,"byteLength":2672,"byteOffset":2004},{"buffer":0,"byteLength":2004,"byteOffset":4676},{"buffer":0,"byteLength":1336,"byteOffset":6680},{"buffer":0,"byteLength":2304,"byteOffset":8016},{"buffer":0,"byteLength":1044,"byteOffset":10320},{"buffer":0,"byteLength":1392,"byteOffset":11364},{"buffer":0,"byteLength":1044,"byteOffset":12756},{"buffer":0,"byteLength":696,"byteOffset":13800},{"buffer":0,"byteLength":1152,"byteOffset":14496}],"buffers":[{"byteLength":15648,"uri":"turret0.bin"}],"images":[{"uri":"textures%2F_albedo.png"}],"materials":[{"extensions":{},"pbrMetallicRoughness":{"baseColorFactor":[0.552010595798492,0.0122863994911313,0.0466652028262615,1],"baseColorTexture":{"index":0},"metallicFactor":0,"roughnessFactor":1}}],"meshes":[{"extras":{"targetNames":[]},"primitives":[{"attributes":{"NORMAL":2,"POSITION":0,"TANGENT":1,"TEXCOORD_0":3},"indices":4,"material":0,"mode":4}]},{"extras":{"targetNames":[]},"primitives":[{"attributes":{"NORMAL":7,"POSITION":5,"TANGENT":6,"TEXCOORD_0":8},"indices":9,"material":0,"mode":4}]}],"nodes":[{"children":[1,2,4,5,7],"extensions":{},"name":"Turret","translation":[-3,2,18]},{"extensions":{},"mesh":0,"name":"MeshInstance3D","translation":[0,0.482962995767593,0]},{"children":[3],"extensions":{},"mesh":1,"name":"MeshInstance3D2","translation":[0,0.684998989105225,-0.2895320057869]},{"extensions":{},"name":"Marker3D","rotation":[0,1,0,-0.0000000437114],"translation":[0,-0.09101440012455,-0.90638899803162]},{"extensions":{},"name":"CollisionShape3D","translation":[0,0.723146021366119,0]},{"children":[6],"extensions":{},"name":"Area3D"},{"extensions":{},"name":"CollisionShape3D2","rotation":[-0.70710676908493,0,0,0.70710676908493],"translation":[0,0.972490012645721,-9.19799995422363]},{"extensions":{},"name":"Timer"}],"samplers":[{"magFilter":9729,"minFilter":9987,"wrapS":10497,"wrapT":10497}],"scene":0,"scenes":[{"nodes":[0]}],"textures":[{"sampler":0,"source":0}]}