<?xml version="1.0" encoding="UTF-8" standalone="no"?>
<svg
   width="20.0905"
   height="19.999987"
   viewBox="0 0 20.0905 19.999987"
   fill="none"
   version="1.1"
   id="svg3"
   sodipodi:docname="gdquest_logo_gear.svg"
   inkscape:version="1.3 (0e150ed, 2023-07-21)"
   xmlns:inkscape="http://www.inkscape.org/namespaces/inkscape"
   xmlns:sodipodi="http://sodipodi.sourceforge.net/DTD/sodipodi-0.dtd"
   xmlns="http://www.w3.org/2000/svg"
   xmlns:svg="http://www.w3.org/2000/svg">
  <sodipodi:namedview
     id="namedview3"
     pagecolor="#ffffff"
     bordercolor="#999999"
     borderopacity="1"
     inkscape:showpageshadow="2"
     inkscape:pageopacity="0"
     inkscape:pagecheckerboard="0"
     inkscape:deskcolor="#d1d1d1"
     inkscape:zoom="22.815789"
     inkscape:cx="10.519031"
     inkscape:cy="10.014994"
     inkscape:window-width="1920"
     inkscape:window-height="1043"
     inkscape:window-x="1920"
     inkscape:window-y="0"
     inkscape:window-maximized="1"
     inkscape:current-layer="svg3" />
  <g
     clip-path="url(#clip0_48_70)"
     id="g3"
     transform="translate(0,-8.9999997)">
    <path
       d="M 7.53612,9.00058 C 7.45063,8.99742 7.36516,9.00718 7.28258,9.02953 L 6.3194,9.28789 C 2.6043,10.2845 0.00459445,13.6699 1.118e-6,17.5178 c -1.490666e-6,9e-4 -1.490666e-6,0.0018 0,0.0028 v 0.0027 0.0028 c 0,4.2259 3.129748882,7.7952 7.238388882,8.4241 l 0.00919,0.0822 0.12907,1.2942 c 0.01105,0.1114 0.04396,0.2195 0.09685,0.3182 0.0529,0.0987 0.12473,0.1859 0.21139,0.2568 0.08665,0.0708 0.18643,0.1239 0.29361,0.1561 0.10719,0.0322 0.21967,0.0429 0.33101,0.0316 l 2.95889,-0.3016 0.6295,0.8634 c 0.1014,0.1388 0.2424,0.2436 0.4045,0.3007 0.1621,0.057 0.3377,0.0636 0.5036,0.0189 l 0.9652,-0.2583 c 3.715,-0.9966 6.3144,-4.382 6.3193,-8.2299 0,-9e-4 0,-0.0019 0,-0.0028 V 20.477 20.4742 c 0,-4.2267 -3.1324,-7.7942 -7.2417,-8.4223 L 12.8387,11.9698 12.7096,10.6742 C 12.6986,10.5628 12.6658,10.4546 12.6129,10.3558 12.56,10.2571 12.4882,10.1698 12.4015,10.0989 12.3149,10.028 12.2151,9.97489 12.1079,9.94265 12.0007,9.91041 11.8881,9.89966 11.7768,9.91101 L 8.81788,10.2145 8.18834,9.34916 C 8.11272,9.24568 8.01471,9.16063 7.90163,9.10035 7.78855,9.04007 7.66332,9.00613 7.53529,9.00105 Z m -0.03307,0.85106 0.91844,1.25806 3.44311,-0.3514 0.2066,2.0621 h 0.0101 c 4.013,0.2712 7.1606,3.6298 7.1606,7.6538 v 0.0028 0.0027 c -0.0092,3.4654 -2.3438,6.5122 -5.6894,7.4097 l -0.9652,0.2584 -0.9189,-1.2566 -3.44267,0.35 -0.2066,-2.0602 H 8.00903 C 3.99602,24.9096 0.849912,21.5492 0.849912,17.5252 V 17.5225 17.5197 C 0.859099,14.0543 3.19369,11.0075 6.53932,10.11 Z"
       fill="#ffffff"
       id="path1" />
    <path
       d="m 6.8934,11.5461 -0.815,0.2995 0.10105,1.3492 C 5.88696,13.3554 5.61349,13.5433 5.36187,13.755 L 4.10125,13.2321 3.54833,13.8908 4.30757,14.9847 C 4.13303,15.2726 3.98844,15.5785 3.87628,15.8985 L 2.54445,16.06 2.40234,16.9008 3.60299,17.4695 c 0,0.1684 0.00918,0.3385 0.02388,0.5097 0.01745,0.1711 0.04317,0.3395 0.07716,0.5044 l -1.06487,0.787 0.30655,0.7972 1.33816,-0.0954 c 0.17371,0.2926 0.37636,0.5654 0.60473,0.8145 L 4.36177,22.0043 5.0342,22.545 6.16668,21.7922 c 0.28882,0.1598 0.59481,0.2918 0.91366,0.3937 l 0.16912,1.3427 0.85873,0.1391 0.61254,-1.24 c 0.15957,-0.0027 0.32042,-0.0122 0.4821,-0.03 l 2.9e-4,6e-4 2.34288,-0.2252 -0.3338,-3.3299 -2.34318,0.2248 0.10417,1.0364 -3.5e-4,-4e-4 C 7.49863,20.2457 6.18637,19.1905 6.0416,17.7473 5.89691,16.3042 6.97473,15.0196 8.44876,14.8779 v -3e-4 l 2.34294,-0.2251 -0.23,-2.2942 -2.34296,0.2251 C 8.0566,12.5966 7.89713,12.6177 7.73995,12.6457 Z"
       fill="#ffffff"
       id="path2" />
    <path
       d="m 11.9828,14.3308 -0.6127,1.24 c -0.1594,0.0027 -0.3202,0.0123 -0.482,0.03 l -2.34318,0.2251 0.22993,2.294 2.34325,-0.2252 c 0.3505,-0.0337 0.7044,5e-4 1.0414,0.1007 0.337,0.1002 0.6506,0.2644 0.9228,0.4833 0.2722,0.2188 0.4977,0.488 0.6637,0.7922 0.1659,0.3042 0.269,0.6374 0.3034,0.9806 0.0694,0.6931 -0.1453,1.3847 -0.5968,1.9228 -0.4515,0.5381 -1.1028,0.8786 -1.8106,0.9465 l -2.34307,0.2261 0.23002,2.2939 2.34325,-0.2251 c 0.1621,-0.0138 0.3217,-0.0351 0.4784,-0.0627 l 0.8481,1.0994 0.8142,-0.2995 -0.1003,-1.3492 c 0.2923,-0.1606 0.5657,-0.3485 0.8171,-0.5602 l 1.2611,0.5229 0.5525,-0.6588 -0.7589,-1.0938 c 0.1746,-0.2879 0.3196,-0.594 0.432,-0.9141 l 1.3309,-0.1612 0.1425,-0.8408 -1.201,-0.5687 c 0.0092,-0.1684 -0.0092,-0.3385 -0.0239,-0.5097 -0.0174,-0.1711 -0.0431,-0.3395 -0.0771,-0.5044 l 1.0649,-0.787 -0.3065,-0.7975 -1.3377,0.0957 c -0.1738,-0.2926 -0.3767,-0.5654 -0.6051,-0.8145 l 0.5267,-1.2174 -0.6723,-0.5407 -1.1328,0.7528 c -0.2889,-0.1598 -0.5946,-0.2918 -0.9135,-0.3937 l -0.1696,-1.3427 z"
       fill="#ffffff"
       id="path3" />
  </g>
  <defs
     id="defs3">
    <clipPath
       id="clip0_48_70">
      <rect
         width="20.0905"
         height="38"
         fill="#ffffff"
         id="rect3"
         x="0"
         y="0" />
    </clipPath>
  </defs>
</svg>
