<svg width="46" height="46" viewBox="0 0 46 46" fill="none" xmlns="http://www.w3.org/2000/svg">
<path d="M29.0777 16.7592V23.2132H26.5799V12.8555C26.5799 12.4672 26.2651 12.1524 25.8769 12.1524C25.4887 12.1524 25.1739 12.4672 25.1739 12.8555V23.2132H22.6762V10.9036C22.6762 10.5153 22.3613 10.2005 21.9731 10.2005C21.5849 10.2005 21.2701 10.5153 21.2701 10.9036V23.2132H18.7724V13.5061C18.7724 13.1178 18.4576 12.8031 18.0693 12.8031C17.681 12.8031 17.3663 13.1178 17.3663 13.5061V25.8157H17.3641H17.3607H17.3573H17.3538H17.3504H17.3468H17.3433H17.3397H17.3361H17.3324H17.3287H17.325H17.3212H17.3174H17.3136H17.3098H17.3059H17.302H17.298H17.294H17.29H17.2859H17.2819H17.2777H17.2736H17.2694H17.2652H17.261H17.2567H17.2524H17.2481H17.2437H17.2393H17.2349H17.2304H17.2259H17.2214H17.2169H17.2123H17.2077H17.2031H17.1984H17.1938H17.189H17.1843H17.1795H17.1747H17.1699H17.1651H17.1602H17.1553H17.1503H17.1454H17.1404H17.1354H17.1303H17.1253H17.1202H17.1151H17.1099H17.1048H17.0996H17.0944H17.0891H17.0838H17.0786H17.0732H17.0679H17.0625H17.0572H17.0517H17.0463H17.0408H17.0354H17.0299H17.0243H17.0188H17.0132H17.0076H17.002H16.9964H16.9907H16.985H16.9793H16.9736H16.9679H16.9621H16.9563H16.9505H16.9447H16.9388H16.933H16.9271H16.9212H16.9152H16.9093H16.9033H16.8973H16.8913H16.8853H16.8793H16.8732H16.8671H16.8611H16.8549H16.8488H16.8427H16.8365H16.8303H16.8241H16.8179H16.8117H16.8054H16.7992H16.7929H16.7866H16.7803H16.7739H16.7676H16.7612H16.7549H16.7485H16.7421H16.7356H16.7292H16.7228H16.7163H16.7098H16.7033H16.6968H16.6903H16.6838H16.6773H16.6707H16.6641H16.6576H16.651H16.6444H16.6377H16.6311H16.6245H16.6178H16.6112H16.6045H16.5978H16.5911H16.5844H16.5777H16.571H16.5642H16.5575H16.5507H16.5439H16.5372H16.5304H16.5236H16.5168H16.51H16.5032H16.4963H16.4895H16.4826H16.4758H16.4689H16.4621H16.4552H16.4483H16.4414H16.4345H16.4276H16.4207H16.4138H16.4069H16.3999H16.393H16.3861H16.3791H16.3722H16.3652H16.3583H16.3513H16.3443H16.3373H16.3304H16.3234H16.3164H16.3094H16.3024H16.2954H16.2884H16.2814H16.2744H16.2674H16.2604H16.2534H16.2463H16.2393H16.2323H16.2253H16.2182H16.2112H16.2042H16.1972H16.1901H16.1831H16.1761H16.169H16.162H16.155H16.1479H16.1409H16.1339H16.1269H16.1198H16.1128H16.1058H16.0987H16.0917H16.0847H16.0777H16.0707H16.0636H16.0566H16.0496H16.0426H16.0356H16.0286H16.0216H16.0146H16.0076H16.0006H15.9936H15.9867H15.9797H15.9727H15.9657H15.9588H15.9518H15.9449H15.9379H15.931H15.924H15.9171H15.9102H15.9033H15.8964H15.8895H15.8826H15.8757H15.8688H15.8619H15.855H15.8482H15.8413H15.8345H15.8276H15.8208H15.814H15.8071H15.8003H15.7935H15.7868H15.78H15.7732H15.7664H15.7597H15.753H15.7462H15.7395H15.7328H15.7261H15.7194H15.7127H15.7061H15.6994H15.6928H15.6861H15.6795H15.6729H15.6663H15.6597H15.6531H15.6466H15.64H15.6335H15.627H15.6205H15.614H15.6075H15.601H15.5946H15.5881H15.5817H15.5753H15.5689H15.5625H15.5562H15.5498H15.5435H15.5372H15.5309H15.5246H15.5183H15.5121H15.5058H15.4996H15.4934H15.4872H15.481H15.4749H15.4687H15.4626H15.4565H15.4504H15.4444H15.4383H15.4323H15.4263H15.4203H15.4143H15.4084H15.4024H15.3965H15.3906H15.3847H15.3789H15.3731H15.3672H15.3614H15.3557H15.3499H15.3442H15.3385H15.3328H15.3271H15.3215H15.3158H15.3102H15.3047H15.2991H15.2936H15.2881H15.2826H15.2771H15.2717H15.2662H15.2608H15.2555H15.2501H15.2448H15.2395H15.2342H15.229H15.2237H15.2185H15.2134H15.2082H15.2031H15.198H15.1929H15.1879H15.1828H15.1779H15.1729H15.1679H15.163H15.1581H15.1533H15.1484H15.1436H15.1388H15.1341H15.1294H15.1247H15.12H15.1154H15.1108H15.1062H15.1016H15.0971H15.0926H15.0881H15.0837H15.0793H15.0749H15.0706H15.0663H15.062H15.0577H15.0535H15.0493H15.0452H15.041H15.0369H15.0329H15.0288H15.0248H15.0209H15.0169H15.013H15.0092H15.0053H15.0015H14.9978H14.994H14.9903H14.9866H14.983H14.9794H14.9758H14.9723H14.9688H14.9654H14.9619H14.9585H14.9552H14.9518H14.9486H14.9453H14.9421H14.9389H14.9358H14.9327H14.9296H14.9266H14.9236H14.9206H14.9177H14.9148H14.912H14.9092H14.9064H14.9037H14.901H14.8983H14.8957H14.8931H14.8906H14.8881H14.8856H14.8832H14.8808H14.8785H14.8762H14.8739H14.8717H14.8695H14.8674H14.8653H14.8633H14.8612H14.8593H14.8576C14.3518 23.7179 13.0756 22.488 11.6928 22.3307L11.6073 22.321L11.6379 22.4015C12.0077 23.3716 12.6351 24.9246 13.6831 27.3198C14.8014 29.8758 15.9323 31.7838 17.3887 33.0626C18.7978 34.2997 20.6068 35.0294 23.2744 35.0294C27.256 35.0294 30.4837 31.8018 30.4837 27.8203V16.7592C30.4837 16.371 30.1689 16.0562 29.7807 16.0562C29.3925 16.0562 29.0777 16.371 29.0777 16.7592ZM14.7827 21.04L14.8686 21.1112V20.9997V13.5061C14.8686 11.7384 16.3016 10.3053 18.0693 10.3053C18.3063 10.3053 18.5372 10.3311 18.7593 10.3799L18.8126 10.3916L18.8222 10.3379C19.0892 8.83997 20.3984 7.70279 21.9731 7.70279C23.3302 7.70279 24.4901 8.54732 24.9557 9.73965L24.973 9.78374L25.0186 9.77108C25.2916 9.69524 25.5795 9.65469 25.8769 9.65469C27.6446 9.65469 29.0777 11.0877 29.0777 12.8555V13.5712V13.6353L29.1405 13.6225C29.3474 13.5805 29.5615 13.5585 29.7807 13.5585C31.5484 13.5585 32.9815 14.9915 32.9815 16.7592V27.8203C32.9815 33.1814 28.6354 37.5271 23.2744 37.5271C20.0861 37.5271 17.6662 36.6301 15.7407 34.9395C13.8627 33.2905 12.5537 30.9697 11.3948 28.3211C10.1847 25.5553 9.51644 23.8713 9.15237 22.8876C8.92543 22.2744 8.96875 21.538 9.28211 20.9407C9.59449 20.3453 10.1751 19.888 11.0274 19.8285C12.5158 19.7244 13.7778 20.207 14.7827 21.04Z" fill="#63CC5F" stroke="#63CC5F" stroke-width="0.1048"/>
<circle cx="23" cy="22.9512" r="21.3792" stroke="#63CC5F" stroke-width="3.144"/>
</svg>
