<svg width="47" height="46" viewBox="0 0 47 46" fill="none" xmlns="http://www.w3.org/2000/svg">
<path d="M22.8755 10.2529C22.5162 10.2529 22.2248 10.5442 22.2248 10.9036V23.2656H19.6223V13.5061C19.6223 13.1468 19.331 12.8555 18.9717 12.8555C18.6123 12.8555 18.321 13.1468 18.321 13.5061V25.8681C17.8608 25.8681 15.7186 25.8681 15.7186 25.8681C15.2226 23.759 13.9516 22.5378 12.5892 22.3828C12.9586 23.352 13.5857 24.9041 14.6334 27.2988C15.7509 29.8528 16.878 31.7522 18.3256 33.0232C19.7239 34.2509 21.5201 34.977 24.1767 34.977C28.1295 34.977 31.3337 31.7729 31.3337 27.8203V16.7592C31.3337 16.3999 31.0423 16.1086 30.6831 16.1086C30.3238 16.1086 30.0324 16.3999 30.0324 16.7592V23.2656H27.4299V12.8555C27.4299 12.4961 27.1385 12.2048 26.7793 12.2048C26.42 12.2048 26.1286 12.4961 26.1286 12.8555V23.2656H23.5261V10.9036C23.5261 10.5442 23.2347 10.2529 22.8755 10.2529ZM33.9362 27.8203C33.9362 33.2104 29.5667 37.5795 24.1767 37.5795C20.9776 37.5795 18.5448 36.679 16.6085 34.9789C14.7216 33.3221 13.4089 30.9926 12.2491 28.3421C11.0388 25.5757 10.3701 23.8907 10.0056 22.9058C9.54137 21.6516 10.1829 19.8981 11.9261 19.7762C13.429 19.6711 14.7041 20.1588 15.7185 20.9997V13.5061C15.7185 11.7094 17.175 10.2529 18.9717 10.2529C19.2124 10.2529 19.4471 10.2791 19.6729 10.3287C19.9444 8.80621 21.2749 7.65039 22.8755 7.65039C24.2548 7.65039 25.4336 8.50883 25.9069 9.72059C26.1845 9.6435 26.4771 9.60229 26.7793 9.60229C28.5759 9.60229 30.0324 11.0588 30.0324 12.8555V13.5712C30.2427 13.5285 30.4603 13.5061 30.6831 13.5061C32.4797 13.5061 33.9362 14.9626 33.9362 16.7592V27.8203Z" fill="#FFD500"/>
<circle cx="23.9023" cy="22.9512" r="21.3792" stroke="#FF417D" stroke-width="3.144"/>
<line x1="7.38998" y1="7.71402" x2="40.1923" y2="37.6868" stroke="#FF417D" stroke-width="3.144"/>
</svg>
