<svg width="12" height="12" viewBox="0 0 12 12" fill="none" xmlns="http://www.w3.org/2000/svg">
<path d="M6.09346 1.82875C4.63676 1.82875 3.34148 2.52071 2.51862 3.59599L3.84416 4.92153H0.470215V1.54759L1.7178 2.79518C2.74797 1.5206 4.32527 0.704102 6.09346 0.704102C9.19906 0.704102 11.7167 3.22171 11.7167 6.32734H10.5921C10.5921 3.84284 8.57797 1.82875 6.09346 1.82875ZM1.59486 6.32734C1.59486 8.81186 3.60895 10.8259 6.09346 10.8259C7.55016 10.8259 8.84547 10.134 9.66832 9.05872L8.34275 7.73315H11.7167V11.1071L10.4691 9.85953C9.43895 11.1341 7.86163 11.9506 6.09346 11.9506C2.98782 11.9506 0.470215 9.43295 0.470215 6.32734H1.59486Z" fill="#EBE0FF"/>
</svg>
